<?xml version="1.0" encoding="UTF-8"?>
<svg width="32" height="32" viewBox="0 0 32 32" fill="none" xmlns="http://www.w3.org/2000/svg">
  <rect width="32" height="32" rx="8" fill="#4F46E5"/>
  <path d="M16 6C10.477 6 6 10.477 6 16C6 21.523 10.477 26 16 26C21.523 26 26 21.523 26 16C26 10.477 21.523 6 16 6ZM16.75 20.5H15.25V19H16.75V20.5ZM16.75 17.5H15.25V11.5H16.75V17.5Z" fill="white"/>
  <path d="M16 8C11.582 8 8 11.582 8 16C8 20.418 11.582 24 16 24C20.418 24 24 20.418 24 16C24 11.582 20.418 8 16 8ZM16 22.5C12.416 22.5 9.5 19.584 9.5 16C9.5 12.416 12.416 9.5 16 9.5C19.584 9.5 22.5 12.416 22.5 16C22.5 19.584 19.584 22.5 16 22.5Z" fill="white" fill-opacity="0.4"/>
</svg> 